D:\Gebruiker\Documents\~school~\WTK\thesis\model\3dpredictsim_Lars\Results\Test_Lars\Test1_bCst_pas_GRF.mot
nRows=20
nColumns=19

name D:\Gebruiker\Documents\~school~\WTK\thesis\model\3dpredictsim_Lars\Results\Test_Lars\Test1_bCst_pas_GRF.mot
datacolumns 19
datarows 20
range 0.5515136732 0.7610888690
endheader
time 	ground_force_vx	ground_force_vy	ground_force_vz	ground_force_px	ground_force_py	ground_force_pz	1_ground_force_vx	1_ground_force_vy	1_ground_force_vz	1_ground_force_px	1_ground_force_py	1_ground_force_pz	ground_torque_x	ground_torque_y	ground_torque_z	1_ground_torque_x	1_ground_torque_y	1_ground_torque_z
        0.5515136732	       94.7083646433	      508.8886620549	        3.6523014819	        0.3767587615	        0.0000000000	        0.0377124540	      -95.5364234235	       86.2714245739	      -36.5566305849	        0.8637059083	        0.0000000000	       -0.0384535794	        0.0000000000	        0.0000000000	        0.0000000000	        0.0000000000	        0.0000000000	        0.0000000000	
        0.5625439466	       78.5501403082	      429.7123187568	        8.2306797321	        0.3800949439	        0.0000000000	        0.0368174466	      -82.4713038845	      182.6543834168	      -72.4354415458	        0.8700975081	        0.0000000000	       -0.0368628356	        0.0000000000	        0.0000000000	        0.0000000000	        0.0000000000	        0.0000000000	        0.0000000000	
        0.5735742201	       63.0276700209	      346.9869376890	        6.6749207199	        0.3849995530	        0.0000000000	        0.0351048326	      -36.8408957277	      325.5090452469	      -15.1004174692	        0.8735157793	        0.0000000000	       -0.0349235672	        0.0000000000	        0.0000000000	        0.0000000000	        0.0000000000	        0.0000000000	        0.0000000000	
        0.5846044935	       40.8477093174	      257.5474469778	        4.8958989488	        0.3928804980	        0.0000000000	        0.0319077852	      -39.4199388481	      456.3631157825	        0.5588668315	        0.8765090210	        0.0000000000	       -0.0351596942	        0.0000000000	        0.0000000000	        0.0000000000	        0.0000000000	        0.0000000000	        0.0000000000	
        0.5956347670	       16.6478391740	      168.6488566514	        8.4690614123	        0.4068430751	        0.0000000000	        0.0255599774	      -71.2371646828	      609.1488332206	        5.6379553091	        0.8837480086	        0.0000000000	       -0.0374186004	        0.0000000000	        0.0000000000	        0.0000000000	        0.0000000000	        0.0000000000	        0.0000000000	
        0.6066650405	        3.4376050951	      130.0054050968	       11.9892323163	        0.4132933967	        0.0000000000	        0.0222595535	      -95.3060748912	      734.0366095581	       10.0610331632	        0.8901773838	        0.0000000000	       -0.0393750419	        0.0000000000	        0.0000000000	        0.0000000000	        0.0000000000	        0.0000000000	        0.0000000000	
        0.6176953139	        1.0073851078	       99.6462837828	       12.7454500379	        0.4138031465	        0.0000000000	        0.0223570780	     -103.4730056984	      794.2849213103	       11.9675925702	        0.8947502042	        0.0000000000	       -0.0406527156	        0.0000000000	        0.0000000000	        0.0000000000	        0.0000000000	        0.0000000000	        0.0000000000	
        0.6287255874	       -3.2912821319	       63.8602340473	       11.4714416488	        0.4142329666	        0.0000000000	        0.0223884276	     -100.9692848483	      805.1215217820	       12.4968328369	        0.8981461403	        0.0000000000	       -0.0414760869	        0.0000000000	        0.0000000000	        0.0000000000	        0.0000000000	        0.0000000000	        0.0000000000	
        0.6397558609	       -8.4644857637	       25.4647684721	        5.4756914493	        0.4138526071	        0.0000000000	        0.0220401785	      -94.1063041693	      794.1210167460	       12.4820437595	        0.9010087159	        0.0000000000	       -0.0419947241	        0.0000000000	        0.0000000000	        0.0000000000	        0.0000000000	        0.0000000000	        0.0000000000	
        0.6507861343	        0.0934373566	       -0.0918673206	       -0.0025743213	        0.0000000000	        0.0000000000	        0.0000000000	      -84.7487590590	      779.2850681965	       13.1670218096	        0.9040298513	        0.0000000000	       -0.0422862432	        0.0000000000	        0.0000000000	        0.0000000000	        0.0000000000	        0.0000000000	        0.0000000000	
        0.6618164078	        0.0002301438	       -0.0001860500	        0.0000109117	        0.0000000000	        0.0000000000	        0.0000000000	      -73.4756684925	      756.7384098980	       14.1921784888	        0.9072106522	        0.0000000000	       -0.0424457556	        0.0000000000	        0.0000000000	        0.0000000000	        0.0000000000	        0.0000000000	        0.0000000000	
        0.6728466813	        0.0000802032	       -0.0000562217	        0.0000053442	        0.0000000000	        0.0000000000	        0.0000000000	      -63.1690913963	      730.1947009364	       14.7139597090	        0.9108600964	        0.0000000000	       -0.0425387157	        0.0000000000	        0.0000000000	        0.0000000000	        0.0000000000	        0.0000000000	        0.0000000000	
        0.6838769547	        0.0007129018	       -0.0004476024	        0.0000537414	        0.0000000000	        0.0000000000	        0.0000000000	      -54.8307922267	      706.1116751904	       15.0910539693	        0.9153040714	        0.0000000000	       -0.0425108800	        0.0000000000	        0.0000000000	        0.0000000000	        0.0000000000	        0.0000000000	        0.0000000000	
        0.6949072282	        0.0043188282	       -0.0024822345	        0.0003485219	        0.0000000000	        0.0000000000	        0.0000000000	      -46.7020235854	      681.9029752712	       15.8091079518	        0.9199865411	        0.0000000000	       -0.0424596443	        0.0000000000	        0.0000000000	        0.0000000000	        0.0000000000	        0.0000000000	        0.0000000000	
        0.7059375016	       -0.0278750425	        0.0148808541	       -0.0023560922	        0.0000000000	        0.0000000000	        0.0000000000	      -38.8365995537	      657.8432772224	       16.3774902411	        0.9246040718	        0.0000000000	       -0.0424581096	        0.0000000000	        0.0000000000	        0.0000000000	        0.0000000000	        0.0000000000	        0.0000000000	
        0.7169677751	       -0.0191499179	        0.0096039702	       -0.0016743868	        0.0000000000	        0.0000000000	        0.0000000000	      -31.9644915689	      635.9156508459	       16.8107064772	        0.9291346794	        0.0000000000	       -0.0425053721	        0.0000000000	        0.0000000000	        0.0000000000	        0.0000000000	        0.0000000000	        0.0000000000	
        0.7279980486	       -0.0137089606	        0.0065191162	       -0.0012274347	        0.0000000000	        0.0000000000	        0.0000000000	      -26.0249292585	      617.2631705662	       17.3706980447	        0.9336241299	        0.0000000000	       -0.0425802524	        0.0000000000	        0.0000000000	        0.0000000000	        0.0000000000	        0.0000000000	        0.0000000000	
        0.7390283220	       -0.0127835531	        0.0058089497	       -0.0011619192	        0.0000000000	        0.0000000000	        0.0000000000	      -20.8630740287	      602.6884112308	       17.7586221016	        0.9383555028	        0.0000000000	       -0.0426620109	        0.0000000000	        0.0000000000	        0.0000000000	        0.0000000000	        0.0000000000	        0.0000000000	
        0.7500585955	       -0.0159811045	        0.0069808075	       -0.0014642867	        0.0000000000	        0.0000000000	        0.0000000000	      -17.1234416342	      592.6419368733	       17.9143376031	        0.9434328864	        0.0000000000	       -0.0427234087	        0.0000000000	        0.0000000000	        0.0000000000	        0.0000000000	        0.0000000000	        0.0000000000	
        0.7610888690	       -0.0256683850	        0.0108312311	       -0.0023494444	        0.0000000000	        0.0000000000	        0.0000000000	      -14.2310341773	      586.3789210119	       17.9533409259	        0.9487963125	        0.0000000000	       -0.0427456825	        0.0000000000	        0.0000000000	        0.0000000000	        0.0000000000	        0.0000000000	        0.0000000000	
